/* XPM */
static char *result[] = {
"50 50 15 1",
"a c #5E676F",
"b c #5A646C",
"c c #546068",
"d c #66717A",
"e c #4A545B",
"s c #7A848C",
"t c #2F363C",
"H c #5A3A1E",
"S c #EBCDAF",
"G c #141414",
"E c #000000",
"Y c #EBDD96",
"T c #3C465A",
"P c #4E5A6E",
"O c #1E1E1E",
"tcaabdaaceabcaabdaaceabcaabdaaceabcaabdaaceabcaabd",
"eabcaabdaacetbcaabdaaceabcaabdaaceabcaabdaaceabcaa",
"aceabcaabdaaceabcaabdaactsbcaabdaaceabcaabdaaceabc",
"daaceabcaabdaaceabcaabdaaceabcaabdaateabcaabdaacea",
"abdaaceabcaabdaaceabcaabdaaceabcaabdaaceabcaabdatc",
"caabdaaceabcaasdaaceabcaabdaaceabcaabdaaceabcaabda",
"abcaabdaaceabcaabdaaceabcaabdaaceabcaabdaaceabcaab",
"ceabcaabdaaceabcaabdaaceabcaabdaaceabcasbdaaceabca",
"aacsabcaabdaaceabcHHHHHHHHHHHHHHHaaceabcaabdaaceab",
"bdaaceabcaabdaaceaHHHHHHHHHHHHHHHbdaaceabcaabdaace",
"aabdaaceabcaabdaacHHHHHHHHHHHHHHHaabdaaceabcaabdaa",
"btaabdaaceabcaabdaHHHHHHHHHHHHHHHbcaabdaaceabcaabd",
"eabcaabdaaceatcaabdSSSSSSSSSSSSSceabcaabdaaceabcaa",
"aceabcaabdaaceabcsaSSSSSSSSSSSSSaaceabcaabdaaceabc",
"daaceabcaabdaaceabcGGGGGGSSSSSSSbdaactabcaabdaacea",
"abdaaceabcaabdaaceaGSSSSGSSSSSSSaabdaaceabsaabdaat",
"caabdasceabcaabdaacGSSESGSSSSSSSbcaabdaaceabcaabda",
"abcaabdaaceabcaabdaGGGGGGSSSSSSSeabcaabdaaceabcaab",
"ceabcaabdaaceabcaabSSSSSSSSSSSSSaceabcaabdaaceabca",
"aaceabcaabdaaceabcaSSSSSSSSSSSSSdaaceabcaabdaaceab",
"bdaaceabcaabdaaceabSSSSSSSSSSSSSabdaaceabcaabdaace",
"aabdaaceabcaabdaaYYYYYYYYYYYYYYYYYabdaaceabcaabdaa",
"bctabdaaceabcaabdYYYYYYTTTTTYYYYYYcaabdaaceabcaabd",
"eabcaabdaaceabtaaYYYYYYTTTTTYYYYYYabcaabdaacesbcaa",
"aceabcaabsaaceabcYYYYYYTTTTTYYYYYYceabcaabdaaceabc",
"daaceabcaabdaaSSSYYYYYYYTTTYYYYYYYYYYetbcaabdaacea",
"abdaaceabcaabdSSSYYYYYYYTTTYYYYYYYYYYaceabcaabdaac",
"caabdaaceabcaaSSSYYYYYYYTTTYYYYYYYYYYdaaceabcaabda",
"abcaabdaaceabcSSSYYYYYYYTTTYYYYYYYYYYabdaaceabcaab",
"ceabcaabdaaceaSSSYYYYYYYTTTYYYYYYYYYYcaabdaaceabca",
"aaceabcaabdaacSSSYYYYYYYTTTYYYYYYYYYYabcaabdaaceab",
"bdaaceabcaabdaSSSYYYYYYYTTTYYYYYYYYYYceabcaabdaase",
"aabdaaceabcasbSSSYYYYYYYTTTYYYYYYYYYYaaceabcaabdaa",
"bcatbdaaceabcaSSSYYYYYYYTTTYYYYYYYYYYbdaaceabcaabd",
"eabcaabdaaceabctaYYYYYYYTTTYYYYYYYabcsabdaaceabcaa",
"aseabcaabdaaceabcPPPPPPPPPPPPPPPPPceabcaabdaaceabc",
"daaceabcaabdaaceaPPPPPPPPPPPPPPPPPaaceatcaabdaacea",
"abdaaceabcaabdaacPPPPPPPPPPPPPPPPPbdaaceabcaabdaac",
"caabdaaceabcaabdaPPPPPPPPPPPPPPPPPaabdaaceabcaabda",
"abcaabdaaceabcaabPPPPPPPPPPPPPPPPPbcaabdaaceabcaab",
"ceabcaabdaaceabsaPPPPPPPPPPPPPPPPPeabcaabdaaceabca",
"aaceabcaabdaaceabPPPPPPPPPPPPPPPPPaceabcaabdaaceab",
"bdaaceabcaabdaacePPPPPPPPPPPPPPPPPdaaceascaabdaace",
"aabdsaceabcaabdaaPPPPPPPPPPPPPPPPPabdaaceabcaabdaa",
"bcaatdaaceabcaabdaPPPPPcaabdPPPPPbcaabdaaceabcaabd",
"eabcaabdaaceabcatbPPPPPabcaaPPPPPeabcaabdaaceabcaa",
"aceabcaabdaaceabcaPPPPPceabcPPPPPaceabcaabdaaceabc",
"daaceabcaabdaaceabPPPPPaaceaPPPPPdaaceabtaabdaacea",
"abdaaceabcaabdaacePPPPPbdaacPPPPPabdaaceabcaabdaac",
"caabdaaceabcaabdaOOOOOOOabdOOOOOOOaabdaaceabcaabda"
};
