/* XPM */
static char *result[] = {
"50 50 17 1",
"a c #5E676F",
"b c #5A646C",
"c c #546068",
"d c #66717A",
"e c #4A545B",
"s c #7A848C",
"t c #2F363C",
"F c #6B4B2A",
"f c #8B6B45",
"D c #D8D1C2",
"p c #C9C1B2",
"W c #B7D0DF",
"w c #9AB7C8",
"B c #7E9FB1",
"M c #B8B0A1",
"K c #C8AA3C",
"N c #2E2E2E",
"tcaabdaaceabcaabdaaceabcaabdaaceabcaabdaaceabcaabd",
"eabcaabdaacetbcaabdaaceabcaabdaaceabcaabdaaceabcaa",
"aceabcaabdaaceabcaabdaactsbcaabdaaceabcaabdaaceabc",
"daaceabcaFFFFFFFFFFFFFFFFFFFFFFFFFFFFFFFFaabdaacea",
"abdaaceabFFFFFFFFFFFFFFFFFFFFFFFFFFFFFFFFbcaabdatc",
"caabdaaceFFffffffffffffffffffffffffffffFFeabcaabda",
"abcaabdaaFFffDDDDDDDDDDDDDDDDDDDDDDDDffFFaceabcaab",
"ceabcaabdFFffDDDDDDDDDDDDDDDDDDDDDDDDffFFdaaceabca",
"aacsabcaaFFffDDDDDDDDDDDDDDDDDDDDDDDDffFFabdaaceab",
"bdaaceabcFFffDDDwwWWWWWWWWWWWWWWWWDDDffFFcaabdaace",
"aabdaaceaFFffDDDBBBBBBBBBBBBBBBBBBDDDffFFabcaabdaa",
"btaabdaacFFffDDDwwWWWWWWWWWWWWWWWWDDDffFFceabcaabd",
"eabcaabdaFFffDDDBBBBBBBBBBBBBBBBBBDDDffFFaaceabcaa",
"aceabcaabFFffDDDwwWWWWWWWWWWWWWWWWDDDffFFbdaaceabc",
"daaceabcaFFffDDDBBBBBBBBBBBBBBBBBBDDDffFFaabdaacea",
"abdaaceabFFffDDDwwWWWWWWWWWWWWWWWWDDDffFFbsaabdaat",
"caabdasceFFffDDDBBBBBBBBBBBBBBBBBBDDDffFFeabcaabda",
"abcaabdaaFFffDDDwwWWWWWWWWWWWWWWWWDDDffFFaceabcaab",
"ceabcaabdFFffDDDwwWWWWWWWWWWWWWWWWDDDffFFdaaceabca",
"aaceabcaaFFffDDNNNNNNNNNNDDDDDDDDDDDDffFFabdaaceab",
"bdaaceabcFFffDDNNNNNNNNNNDDDDDDDDDDDDffFFcaabdaace",
"aabdaaceaFFffDDDDDDDDDDDDDDDDDDDDDDDDffFFabcaabdaa",
"bctabdaacFFffDDDppppppppppppppppppDDDffFFceabcaabd",
"eabcaabdaFFffDDDppppppppppppppppppDDDffFFaacesbcaa",
"aceabcaabFFffDDDppDDDDDDDDDDDDDDppDDDffFFbdaaceabc",
"daaceabcaFFffDDDppDDDDDDDDDDDDDDppDDDffFFaabdaacea",
"abdaaceabFFffDDDppDDDDDDDDDDDDDDppDDDffFFbcaabdaac",
"caabdaaceFFffDDDppDDDDDDDDDDDDDDppDDDffFFeabcaabda",
"abcaabdaaFFffDDDppDDDDDDDDDDDDDDpMMDDffFFaceabcaab",
"ceabcaabdFFffDDDppDDDDDDDDDDDDDDpMMDDffFFdaaceabca",
"aaceabcaaFFffDDDppDDDDDDDDDDDDDDpMKKDffFFabdaaceab",
"bdaaceabcFFffDDDppDDDDDDDDDDDDDDpMKKDffFFcaabdaase",
"aabdaaceaFFffDDDppDDDDDDDDDDDDDDpMMDDffFFabcaabdaa",
"bcatbdaacFFffDDDppDDDDDDDDDDDDDDpMMDDffFFceabcaabd",
"eabcaabdaFFffDDDppDDDDDDDDDDDDDDppDDDffFFaaceabcaa",
"aseabcaabFFffDDDppDDDDDDDDDDDDDDppDDDffFFbdaaceabc",
"daaceabcaFFffDDDppDDDDDDDDDDDDDDppDDDffFFaabdaacea",
"abdaaceabFFffDDDppDDDDDDDDDDDDDDppDDDffFFbcaabdaac",
"caabdaaceFFffDDDppDDDDDDDDDDDDDDppDDDffFFeabcaabda",
"abcaabdaaFFffDDDppppppppppppppppppDDDffFFaceabcaab",
"ceabcaabdFFffDDDppppppppppppppppppDDDffFFdaaceabca",
"aaceabcaaFFffDDDDDDDDDDDDDDDDDDDDDDDDffFFabdaaceab",
"bdaaceabcFFffDDDDDDDDDDDDDDDDDDDDDDDDffFFcaabdaace",
"aabdsaceaFFffDDDDDDDDDDDDDDDDDDDDDDDDffFFabcaabdaa",
"bcaatdaacFFffDDDDDDDDDDDDDDDDDDDDDDDDffFFceabcaabd",
"eabcaabdaFFffDDDDDDDDDDDDDDDDDDDDDDDDffFFaaceabcaa",
"aceabcaabFFffDDDDDDDDDDDDDDDDDDDDDDDDffFFbdaaceabc",
"daaceabcaFFffDDDDDDDDDDDDDDDDDDDDDDDDffFFaabdaacea",
"abdaaceabcaabdaacesbcaabdaaceabcaabdaaceabcaabdaac",
"caabdaaceabcaabdaaceabcaabdaaceabcaabdaaceabcaabda"
};
