/* XPM */
static char *result[] = {
"50 50 7 1",
"a c #5E676F",
"b c #5A646C",
"c c #546068",
"d c #66717A",
"e c #4A545B",
"s c #7A848C",
"t c #2F363C",
"tcaabdaaceabcaabdaaceabcaabdaaceabcaabdaaceabcaabd",
"eabcaabdaacetbcaabdaaceabcaabdaaceabcaabdaaceabcaa",
"aceabcaabdaaceabcaabdaactsbcaabdaaceabcaabdaaceabc",
"daaceabcaabdaaceabcaabdaaceabcaabdaateabcaabdaacea",
"abdaaceabcaabdaaceabcaabdaaceabcaabdaaceabcaabdatc",
"caabdaaceabcaasdaaceabcaabdaaceabcaabdaaceabcaabda",
"abcaabdaaceabcaabdaaceabcaabdaaceabcaabdaaceabcaab",
"ceabcaabdaaceabcaabdaaceabcaabdaaceabcasbdaaceabca",
"aacsabcaabdaaceabcaabdaaceabcaabdaaceabcaabdaaceab",
"bdaaceabcaabdaaceabcaabdaaceabcaabdaaceabcaabdaace",
"aabdaaceabcaabdaaceabcaabdaaseabcaabdaaceabcaabdaa",
"btaabdaaceabcaabdaaceabcaabdaaceabcaabdaaceabcaabd",
"eabcaabdaaceatcaabdaaceabcaabdaaceabcaabdaaceabcaa",
"aceabcaabdaaceabcsabdaacetbcaabdaaceabcaabdaaceabc",
"daaceabcaabdaaceabcaabdaaceabcaabdaactabcaabdaacea",
"abdaaceabcaabdaaceabcaabdaaceabcaabdaaceabsaabdaat",
"caabdasceabcaabdaaceabcaabdaaceabcaabdaaceabcaabda",
"abcaabdaaceabcaabdaaceabcaabdaaceabcaabdaaceabcaab",
"ceabcaabdaaceabcaabdaaceabcaabdsaceabcaabdaaceabca",
"aaceabcaabdaaceabcaabdaaceabcaabdaaceabcaabdaaceab",
"bdaaceabcaabdaaceabcaabdaaceabcaabdaaceabcaabdaace",
"aabdaaceabcaabdaaceascaabdaaceabcaabdaaceabcaabdaa",
"bctabdaaceabcaabdaaceabcaabdaaceabcaabdaaceabcaabd",
"eabcaabdaaceabtaabdaaceabcaabdaaceabcaabdaacesbcaa",
"aceabcaabsaaceabcaabdaaceatcaabdaaceabcaabdaaceabc",
"daaceabcaabdaaceabcaabdaaceabcaabdaacetbcaabdaacea",
"abdaaceabcaabdaaceabcaabdaaceabcaasdaaceabcaabdaac",
"caabdaaceabcaabdaaceabcaabdaaceabcaabdaaceabcaabda",
"abcaabdaaceabcaabdaaceabcaabdaaceabcaabdaaceabcaab",
"ceabcaabdaaceabcaabdaacsabcaabdaaceabcaabdaaceabca",
"aaceabcaabdaaceabcaabdaaceabcaabdaaceabcaabdaaceab",
"bdaaceabcaabdaaceabcaabdaaceabcaabdaaceabcaabdaase",
"aabdaaceabcasbdaaceabcaabdaaceabcaabdaaceabcaabdaa",
"bcatbdaaceabcaabdaaceabcaabdaaceabcaabdaaceabcaabd",
"eabcaabdaaceabctabdaaceabcaabdaaceabcsabdaaceabcaa",
"aseabcaabdaaceabcaabdaaceabtaabdaaceabcaabdaaceabc",
"daaceabcaabdaaceabcaabdaaceabcaabdaaceatcaabdaacea",
"abdaaceabcaabdaaceabcaabdasceabcaabdaaceabcaabdaac",
"caabdaaceabcaabdaaceabcaabdaaceabcaabdaaceabcaabda",
"abcaabdaaceabcaabdaaceabcaabdaaceabcaabdaaceabcaab",
"ceabcaabdaaceabsaabdaaceabcaabdaaceabcaabdaaceabca",
"aaceabcaabdaaceabcaabdaaceabcaabdaaceabcaabdaaceab",
"bdaaceabcaabdaaceabcaabdaaceabcaabdaaceascaabdaace",
"aabdsaceabcaabdaaceabcaabdaaceabcaabdaaceabcaabdaa",
"bcaatdaaceabcaabdaaceabcaabdaaceabcaabdaaceabcaabd",
"eabcaabdaaceabcatbdaaceabcaabsaaceabcaabdaaceabcaa",
"aceabcaabdaaceabcaabdaaceabctabdaaceabcaabdaaceabc",
"daaceabcaabdaaceabcaabdaaceabcaabdaaceabtaabdaacea",
"abdaaceabcaabdaacesbcaabdaaceabcaabdaaceabcaabdaac",
"caabdaaceabcaabdaaceabcaabdaaceabcaabdaaceabcaabda"
};
