/* XPM */
static char *result[] = {
"50 50 4 1",
"f c #E4DCCB",
"v c #DDD4C3",
"n c #C8BEAF",
"u c #B8AE9F",
"vfffffvfffffvfffffvfffffvfffffvfffffvfffffvfffffvf",
"vfffffvfffffvfffffvfffffvfffffvfffffvfffffvfffffvf",
"vfffffvfffffvfffffvfffffvfffffvfffffvfffffvfffffvf",
"vfffffvfffffvfffffvfffffvfffffvfffffvfffffvfffffvf",
"vfffffvfffffvfffffvfffffvfffffvfffffvfffffvfffffvf",
"vfffffvfffffvfffffvfffffvfffffvfffffvfffffvfffffvf",
"vfffffvfffffvfffffvfffffvfffffvfffffvfffffvfffffvf",
"vfffffvfffffvfffffvfffffvfffffvfffffvfffffvfffffvf",
"vfffffvfffffvfffffvfffffvfffffvfffffvfffffvfffffvf",
"vfffffvfffffvfffffvfffffvfffffvfffffvfffffvfffffvf",
"vfffffvfffffvfffffvfffffvfffffvfffffvfffffvfffffvf",
"vfffffvfffffvfffffvfffffvfffffvfffffvfffffvfffffvf",
"vfffffvfffffvfffffvfffffvfffffvfffffvfffffvfffffvf",
"vfffffvfffffvfffffvfffffvfffffvfffffvfffffvfffffvf",
"vfffffvfffffvfffffvfffffvfffffvfffffvfffffvfffffvf",
"vfffffvfffffvfffffvfffffvfffffvfffffvfffffvfffffvf",
"vfffffvfffffvfffffvfffffvfffffvfffffvfffffvfffffvf",
"vfffffvfffffvfffffvfffffvfffffvfffffvfffffvfffffvf",
"vfffffvfffffvfffffvfffffvfffffvfffffvfffffvfffffvf",
"vfffffvfffffvfffffvfffffvfffffvfffffvfffffvfffffvf",
"vfffffvfffffvfffffvfffffvfffffvfffffvfffffvfffffvf",
"vfffffvfffffvfffffvfffffvfffffvfffffvfffffvfffffvf",
"vfffffvfffffvfffffvfffffvfffffvfffffvfffffvfffffvf",
"vfffffvfffffvfffffvfffffvfffffvfffffvfffffvfffffvf",
"vfffffvfffffvfffffvfffffvfffffvfffffvfffffvfffffvf",
"vfffffvfffffvfffffvfffffvfffffvfffffvfffffvfffffvf",
"vfffffvfffffvfffffvfffffvfffffvfffffvfffffvfffffvf",
"vfffffvfffffvfffffvfffffvfffffvfffffvfffffvfffffvf",
"vfffffvfffffvfffffvfffffvfffffvfffffvfffffvfffffvf",
"vfffffvfffffvfffffvfffffvfffffvfffffvfffffvfffffvf",
"vfffffvfffffvfffffvfffffvfffffvfffffvfffffvfffffvf",
"vfffffvfffffvfffffvfffffvfffffvfffffvfffffvfffffvf",
"vfffffvfffffvfffffvfffffvfffffvfffffvfffffvfffffvf",
"vfffffvfffffvfffffvfffffvfffffvfffffvfffffvfffffvf",
"vfffffvfffffvfffffvfffffvfffffvfffffvfffffvfffffvf",
"vfffffvfffffvfffffvfffffvfffffvfffffvfffffvfffffvf",
"vfffffvfffffvfffffvfffffvfffffvfffffvfffffvfffffvf",
"vfffffvfffffvfffffvfffffvfffffvfffffvfffffvfffffvf",
"vfffffvfffffvfffffvfffffvfffffvfffffvfffffvfffffvf",
"vfffffvfffffvfffffvfffffvfffffvfffffvfffffvfffffvf",
"vfffffvfffffvfffffvfffffvfffffvfffffvfffffvfffffvf",
"vfffffvfffffvfffffvfffffvfffffvfffffvfffffvfffffvf",
"vfffffvfffffvfffffvfffffvfffffvfffffvfffffvfffffvf",
"vfffffvfffffvfffffvfffffvfffffvfffffvfffffvfffffvf",
"vfffffvfffffvfffffvfffffvfffffvfffffvfffffvfffffvf",
"vfffffvfffffvfffffvfffffvfffffvfffffvfffffvfffffvf",
"vfffffvfffffvfffffvfffffvfffffvfffffvfffffvfffffvf",
"vfffffvfffffvfffffvfffffvfffffvfffffvfffffvfffffvf",
"vfffffvfffffvfffffvfffffvfffffvfffffvfffffvfffffvf",
"vfffffvfffffvfffffvfffffvfffffvfffffvfffffvfffffvf"
};
